<?xml version="1.0" standalone="no"?>
<!DOCTYPE svg PUBLIC "-//W3C//DTD SVG 20010904//EN"
 "http://www.w3.org/TR/2001/REC-SVG-20010904/DTD/svg10.dtd">
<svg version="1.0" xmlns="http://www.w3.org/2000/svg"
 width="300.000000pt" height="300.000000pt" viewBox="0 0 300.000000 300.000000"
 preserveAspectRatio="xMidYMid meet">
<metadata>
Created by potrace 1.10, written by Peter Selinger 2001-2011
</metadata>
<g transform="translate(0.000000,300.000000) scale(0.100000,-0.100000)"
fill="#000000" stroke="none">
<path d="M1842 2647 c-41 -44 -16 -127 38 -127 16 0 20 -7 20 -30 0 -28 -2
-30 -40 -30 l-40 0 0 -179 c0 -194 1 -199 56 -185 l25 7 -2 -84 -2 -84 26 -3
27 -3 0 85 0 86 28 -6 c49 -10 53 6 50 192 l-3 169 -37 3 c-35 3 -38 6 -38 33
0 22 5 29 19 29 24 0 61 45 61 75 0 12 -9 34 -21 49 -18 23 -27 26 -83 26 -52
0 -66 -4 -84 -23z m133 -52 c0 -16 -8 -21 -44 -23 -48 -4 -67 8 -57 33 4 12
17 15 53 13 40 -3 48 -6 48 -23z m3 -316 l-3 -131 -52 -2 c-52 -1 -53 -1 -53
26 0 23 4 28 25 28 20 0 25 5 25 25 0 20 -5 25 -25 25 -21 0 -25 5 -25 31 0
28 2 31 25 25 23 -6 25 -3 25 24 0 25 -4 30 -25 30 -20 0 -25 5 -25 25 0 24 3
25 55 25 l56 0 -3 -131z"/>
<path d="M1071 2589 c-139 -29 -164 -223 -38 -291 70 -38 171 -8 208 62 64
120 -38 257 -170 229z m108 -80 c17 -17 31 -35 31 -40 0 -5 -47 -9 -105 -9
-58 0 -105 3 -105 8 0 4 8 17 18 28 44 54 115 60 161 13z m21 -118 c-5 -11
-22 -29 -37 -41 -47 -37 -123 -15 -154 42 -9 17 -2 18 96 18 101 0 105 -1 95
-19z"/>
<path d="M1315 2515 c-22 -22 -25 -32 -25 -105 0 -73 3 -83 25 -105 32 -33 78
-33 110 0 22 22 25 32 25 105 0 73 -3 83 -25 105 -15 16 -36 25 -55 25 -19 0
-40 -9 -55 -25z m79 -41 c13 -33 6 -44 -24 -44 -25 0 -30 4 -30 23 0 13 3 27
7 30 12 13 41 7 47 -9z m6 -103 c0 -24 -25 -45 -45 -37 -8 3 -15 17 -15 31 0
21 5 25 30 25 23 0 30 -5 30 -19z"/>
<path d="M1525 2465 c-30 -29 -32 -70 -5 -105 17 -23 27 -25 102 -28 73 -3 86
-1 111 18 38 30 38 90 1 119 -22 17 -41 21 -106 21 -70 0 -82 -3 -103 -25z
m85 -55 c0 -23 -5 -30 -19 -30 -28 0 -47 26 -31 45 7 8 21 15 31 15 14 0 19
-7 19 -30z m95 0 c0 -18 -6 -26 -22 -28 -20 -3 -23 1 -23 28 0 27 3 31 23 28
16 -2 22 -10 22 -28z"/>
<path d="M1446 2249 c-30 -35 -32 -49 -11 -88 17 -34 38 -41 127 -41 82 0 121
26 121 80 0 24 -7 40 -27 57 -23 20 -38 23 -106 23 -75 0 -79 -1 -104 -31z
m84 -49 c0 -23 -5 -30 -19 -30 -28 0 -47 26 -31 45 7 8 21 15 31 15 14 0 19
-7 19 -30z m95 0 c0 -18 -6 -26 -22 -28 -20 -3 -23 1 -23 28 0 27 3 31 23 28
16 -2 22 -10 22 -28z"/>
<path d="M1144 2236 c-17 -8 -44 -31 -60 -51 -36 -48 -40 -129 -8 -172 28 -38
82 -73 110 -73 20 0 24 -5 24 -30 0 -24 -4 -30 -21 -30 -11 0 -34 -13 -50 -29
-41 -42 -41 -105 1 -146 17 -17 41 -28 59 -29 25 -1 33 -8 48 -40 17 -39 96
-126 114 -126 5 0 9 -28 9 -63 l0 -63 -93 -11 c-183 -21 -363 -106 -500 -234
-117 -108 -185 -100 750 -97 l808 3 3 21 c5 36 -145 157 -275 223 -82 41 -220
80 -309 88 l-71 6 1 57 c2 55 4 58 57 111 30 30 61 68 67 85 10 24 22 33 58
42 48 13 84 56 84 100 0 49 -50 102 -95 102 -11 0 -15 21 -17 93 l-3 92 -235
5 -235 5 -1 38 c-2 44 -26 82 -74 115 -38 25 -98 29 -146 8z m143 -71 c13 -14
23 -30 23 -36 0 -5 -44 -9 -100 -9 -55 0 -100 3 -100 6 0 3 5 14 10 24 29 55
126 63 167 15z m23 -114 c-34 -65 -121 -81 -171 -32 -16 16 -29 34 -29 40 0 7
37 11 105 11 101 0 105 -1 95 -19z m479 -178 c0 -87 -5 -161 -12 -180 -39
-105 -138 -176 -246 -176 -105 0 -205 65 -247 160 -23 53 -33 273 -12 273 8 0
29 16 48 35 l34 35 218 0 218 0 -1 -147z m-573 -98 c0 -30 -2 -55 -5 -55 -18
0 -51 34 -51 51 0 30 18 59 38 59 14 0 17 -10 18 -55z m668 33 c21 -30 20 -44
-4 -68 -32 -32 -40 -24 -40 35 0 61 16 73 44 33z m-359 -343 c28 0 62 3 78 8
l27 7 0 -55 c0 -53 -1 -55 -41 -80 -60 -39 -62 -39 -118 -4 l-51 32 0 54 0 53
28 -7 c15 -5 50 -8 77 -8z m-81 -167 c31 -18 56 -38 56 -45 0 -12 -49 -43 -67
-43 -4 0 -18 16 -31 35 -21 34 -25 35 -82 35 -53 0 -60 2 -60 19 0 22 16 28
82 30 35 1 59 -7 102 -31z m324 26 c13 -4 22 -14 22 -25 0 -16 -8 -19 -59 -19
-57 0 -60 -1 -81 -35 -12 -19 -26 -35 -31 -35 -21 0 -70 32 -66 43 2 6 28 26
58 44 54 33 103 41 157 27z m-558 -47 c0 -48 13 -55 83 -50 l62 5 25 -41 c26
-44 41 -48 80 -26 37 21 40 19 40 -30 l0 -45 -350 0 c-192 0 -350 2 -350 4 0
9 117 94 171 125 55 31 202 90 227 91 7 0 12 -13 12 -33z m732 7 c40 -14 98
-40 128 -57 63 -35 179 -118 180 -129 0 -5 -157 -8 -350 -8 l-350 0 0 45 c0
49 3 51 40 30 40 -23 58 -18 87 26 26 40 28 41 82 39 83 -3 81 -4 81 40 0 48
4 49 102 14z m-403 -91 c-15 -18 -34 -1 -25 22 5 14 9 15 21 5 12 -10 13 -16
4 -27z"/>
<path d="M1370 1830 c0 -25 4 -30 25 -30 21 0 25 5 25 30 0 25 -4 30 -25 30
-21 0 -25 -5 -25 -30z"/>
<path d="M1630 1830 c0 -27 3 -30 30 -30 27 0 30 3 30 30 0 27 -3 30 -30 30
-27 0 -30 -3 -30 -30z"/>
<path d="M1469 1655 c-35 -19 -45 -46 -23 -62 15 -11 21 -10 39 7 27 25 60 26
82 1 13 -16 20 -17 39 -9 31 14 30 21 -7 52 -35 30 -88 34 -130 11z"/>
<path d="M746 954 c-20 -20 -20 -74 -1 -121 8 -19 15 -46 15 -59 0 -21 -5 -24
-40 -24 -29 0 -40 -4 -40 -15 0 -22 27 -30 56 -17 19 9 24 9 24 -2 0 -20 104
-33 125 -16 19 16 19 30 -1 30 -8 0 -12 -4 -9 -10 12 -19 -62 -8 -103 16 -1 1
2 13 9 27 9 20 8 35 -5 73 -19 56 -21 95 -4 112 17 17 31 15 24 -3 -4 -11 1
-15 19 -15 15 0 25 6 25 14 0 28 -69 36 -94 10z"/>
<path d="M1194 951 c-2 -2 -4 -11 -4 -19 0 -12 3 -12 15 -2 9 7 17 11 20 9 9
-9 -27 -109 -39 -109 -7 0 -21 -7 -32 -15 -19 -15 -19 -15 4 -34 35 -30 3 -72
-42 -55 -11 4 -16 1 -16 -10 0 -20 39 -21 65 -2 11 8 24 12 30 9 7 -2 11 6 11
19 -1 15 6 24 19 26 26 5 46 22 39 33 -9 16 -34 10 -28 -6 4 -9 0 -15 -10 -15
-17 0 -21 17 -7 39 7 11 13 11 37 0 22 -11 31 -24 38 -57 7 -32 13 -42 28 -42
15 0 18 4 13 18 -12 28 -54 176 -55 191 0 11 3 11 15 1 12 -10 15 -9 15 7 0
17 -7 19 -56 19 -31 -1 -58 -3 -60 -5z m72 -76 c9 -40 8 -45 -7 -45 -25 0 -31
14 -23 55 8 47 17 44 30 -10z"/>
<path d="M847 876 c-4 -24 -13 -62 -20 -85 -14 -39 -14 -41 4 -41 12 0 19 7
19 20 0 15 7 20 25 20 18 0 25 -5 25 -20 0 -13 7 -20 19 -20 18 0 18 3 -3 85
-18 73 -24 85 -42 85 -18 0 -22 -8 -27 -44z m36 -64 c-25 -6 -30 3 -20 38 l10
35 12 -35 c10 -29 10 -36 -2 -38z"/>
<path d="M962 908 c-21 -21 -13 -42 29 -79 25 -21 39 -40 35 -47 -12 -19 -42
-14 -60 11 l-16 22 2 -30 c3 -26 7 -30 36 -33 69 -7 85 50 27 94 -19 14 -35
33 -35 40 0 17 32 18 48 2 9 -9 12 -7 12 10 0 18 -6 22 -33 22 -18 0 -38 -5
-45 -12z"/>
<path d="M1345 835 l0 -85 37 0 c47 0 78 36 78 91 0 51 -27 79 -77 79 l-38 0
0 -85z m73 53 c26 -26 8 -118 -23 -118 -12 0 -15 15 -15 65 0 66 10 81 38 53z"/>
<path d="M1485 835 c0 -69 3 -85 15 -85 12 0 15 16 15 85 0 69 -3 85 -15 85
-12 0 -15 -16 -15 -85z"/>
<path d="M1556 898 c-9 -12 -16 -41 -16 -63 0 -53 23 -85 59 -85 16 0 34 7 41
15 17 21 6 29 -18 14 -17 -10 -23 -10 -36 0 -16 14 -22 74 -10 105 7 19 35 21
52 4 9 -9 12 -7 12 10 0 18 -6 22 -34 22 -25 0 -39 -7 -50 -22z"/>
<path d="M1677 902 c-25 -27 -23 -114 2 -136 26 -23 75 -18 79 9 3 16 1 18 -9
8 -24 -24 -48 -15 -57 21 -19 66 8 113 49 87 16 -9 19 -8 19 9 0 16 -7 20 -33
20 -20 0 -41 -8 -50 -18z"/>
<path d="M1778 835 c-3 -79 -2 -85 17 -85 18 0 20 7 20 85 0 73 -2 85 -17 85
-14 0 -17 -13 -20 -85z"/>
<path d="M1857 902 c-22 -24 -22 -100 -1 -130 18 -27 55 -29 77 -4 24 26 23
113 -1 135 -24 22 -55 21 -75 -1z m64 -41 c13 -44 5 -91 -15 -91 -18 0 -33 19
-41 53 -19 74 34 110 56 38z"/>
<path d="M1975 835 c0 -69 3 -85 15 -85 12 0 14 12 12 65 -2 38 0 65 6 65 16
0 41 -46 48 -89 11 -67 22 -47 26 44 2 72 1 85 -12 85 -12 0 -15 -9 -13 -37
l4 -38 -16 27 c-14 26 -43 48 -62 48 -4 0 -8 -38 -8 -85z"/>
<path d="M2115 835 l0 -85 48 0 c34 0 47 4 47 14 0 11 -9 13 -35 9 l-35 -6 0
42 c0 39 2 42 26 39 16 -2 29 3 32 11 3 10 -3 13 -27 9 -26 -4 -31 -1 -31 15
0 16 5 18 30 15 18 -3 31 0 34 9 4 10 -7 13 -42 13 l-47 0 0 -85z"/>
<path d="M2230 901 c-15 -28 -14 -30 31 -71 23 -21 39 -43 35 -49 -10 -16 -46
-13 -52 4 -9 23 -26 18 -22 -7 2 -18 11 -24 36 -26 69 -7 85 50 27 94 -19 14
-35 33 -35 40 0 17 32 18 48 2 9 -9 12 -7 12 10 0 18 -6 22 -35 22 -24 0 -37
-6 -45 -19z"/>
</g>
</svg>
